<svg width="46" height="24" viewBox="0 0 46 24" fill="none" xmlns="http://www.w3.org/2000/svg">
<g clip-path="url(#clip0_8843_11109)">
<path d="M44.2654 8.30827C43.4045 6.27935 41.9743 4.55763 40.1712 3.33894C39.274 2.73325 38.2813 2.25146 37.2158 1.92293C36.1575 1.58726 35.0266 1.41197 33.8593 1.41197C32.3627 1.41197 30.9252 1.7042 29.6119 2.23727C29.5021 2.28063 29.4002 2.32417 29.2983 2.37546C28.116 2.89355 27.0357 3.62332 26.1092 4.49198C25.8099 4.77636 25.5256 5.07563 25.2405 5.41131C24.7374 5.98783 24.2193 6.65203 23.7154 7.32329C23.6135 7.46147 23.5038 7.60758 23.4019 7.74664C23.1247 8.12576 20.4751 12.0082 20.0083 12.7016C19.7745 13.0515 19.4973 13.4456 19.1979 13.8761C19.1324 13.9709 19.0598 14.0735 18.987 14.1753C18.4904 14.8831 17.9359 15.6278 17.4249 16.2848C17.1698 16.6126 16.914 16.9191 16.6952 17.1749C16.4693 17.4372 16.2647 17.6488 16.1186 17.7877C15.4915 18.3785 14.7539 18.8603 13.9444 19.1888C13.1342 19.5174 12.2511 19.6998 11.3168 19.6998C10.6747 19.6998 10.0547 19.612 9.47112 19.4517C9.17184 19.3713 8.87962 19.2693 8.59523 19.1453C7.33962 18.6194 6.26703 17.7293 5.51523 16.6126C5.13611 16.051 4.83675 15.4381 4.6323 14.781C4.43551 14.124 4.31875 13.4313 4.31875 12.7015C4.31875 11.7309 4.51615 10.8187 4.86601 9.97914C5.39908 8.72423 6.28915 7.65887 7.40589 6.89984C7.96743 6.52002 8.58025 6.2285 9.23732 6.02396C9.89368 5.81942 10.5871 5.70336 11.3168 5.70336C12.2511 5.71041 13.1342 5.88578 13.9444 6.21361C14.754 6.54919 15.4915 7.02384 16.1186 7.61463C16.2647 7.75361 16.4693 7.97234 16.6952 8.22817C17.0893 8.68783 17.5561 9.27863 18.0236 9.89939C18.206 10.1474 18.3884 10.3954 18.5708 10.6505C19.2713 9.62928 20.4971 7.83407 21.1392 6.90689C21.0302 6.76078 20.9204 6.61546 20.8113 6.46935C20.5191 6.09657 20.227 5.73958 19.9355 5.41104C19.6433 5.07537 19.3661 4.77609 19.0668 4.49171C18.0599 3.54242 16.8705 2.76929 15.5641 2.23692C14.2507 1.70385 12.8127 1.41162 11.3168 1.41162C9.76255 1.41162 8.27384 1.72588 6.91696 2.3024C4.88813 3.15616 3.17276 4.58645 1.95406 6.38871C1.34837 7.28672 0.867293 8.2858 0.531621 9.34411C0.203176 10.4098 0.0278931 11.5337 0.0278931 12.7017C0.0278931 14.256 0.341445 15.7447 0.910915 17.0944C1.77173 19.1305 3.20201 20.8459 4.99723 22.0645C5.90228 22.6703 6.89502 23.1512 7.96037 23.4869C9.01859 23.8154 10.1496 23.9907 11.3169 23.9907C12.8128 23.9907 14.2509 23.6985 15.5642 23.1662C16.8706 22.6331 18.0528 21.8598 19.0598 20.9185L19.0669 20.9113C19.3663 20.6341 19.6435 20.327 19.9356 19.9913C20.4387 19.4148 20.9568 18.7513 21.4607 18.0799C21.5626 17.941 21.6723 17.802 21.7742 17.6637C22.0515 17.2768 25.6788 11.9569 25.9775 11.5265C26.0437 11.4316 26.1164 11.3298 26.1891 11.2272C26.6858 10.5266 27.2402 9.77486 27.7512 9.1185C28.0063 8.78997 28.2621 8.48347 28.4809 8.22834C28.7069 7.96537 28.9114 7.7537 29.0575 7.61481C29.6846 7.02401 30.4222 6.54937 31.2318 6.21378C31.4292 6.13394 31.6259 6.06846 31.8303 6.0021C32.4724 5.81263 33.1508 5.71067 33.8593 5.70353C34.8298 5.71058 35.7492 5.90023 36.5808 6.25793C37.8358 6.78316 38.9091 7.67324 39.6602 8.78997C40.04 9.35221 40.3393 9.96513 40.5431 10.6214C40.7476 11.2785 40.8574 11.9718 40.8574 12.7016C40.8574 13.6722 40.66 14.5916 40.3101 15.4232C39.777 16.6781 38.8869 17.7514 37.7702 18.5025C37.2087 18.8823 36.5958 19.1817 35.9388 19.3784C35.2896 19.5829 34.589 19.6999 33.8593 19.6999C32.925 19.6999 32.0419 19.5175 31.2317 19.1889C30.4221 18.8604 29.6845 18.3786 29.0574 17.7878C28.9113 17.6488 28.7067 17.4301 28.4809 17.175C28.0868 16.7225 27.6193 16.1238 27.1524 15.5038C26.963 15.2558 26.7805 14.9999 26.598 14.7448C26.5396 14.8324 26.4812 14.9202 26.4156 15.0149C25.2113 16.7809 24.4523 17.8975 24.0368 18.5026C24.1458 18.6487 24.2556 18.7877 24.3646 18.9338C24.6568 19.3058 24.9489 19.6636 25.2404 19.9913C25.5254 20.3269 25.8098 20.6341 26.1091 20.9113C27.1161 21.8598 28.3055 22.6331 29.6118 23.1662C30.9252 23.6985 32.3626 23.9907 33.8592 23.9907C35.4134 23.9907 36.9022 23.6772 38.2519 23.1078C40.2879 22.2469 42.0026 20.8166 43.2219 19.0136C43.8269 18.1164 44.3165 17.1237 44.6443 16.0582C44.973 14.9999 45.1484 13.869 45.1484 12.7017C45.1484 11.1474 44.8348 9.65871 44.2654 8.30827Z" fill="#13F195"/>
</g>
<defs>
<clipPath id="clip0_8843_11109">
<rect width="45.1765" height="24" fill="white"/>
</clipPath>
</defs>
</svg>
