<svg
                    width="250"
                    height="50"
                    viewBox="0 0 105 24"
                    fill="none"
                    xmlns="http://www.w3.org/2000/svg"
                  >
                    <g clip-path="url(#clip0_8938_5596)">
                      <path
                        d="M31.3549 9.38513C30.7451 7.94797 29.732 6.72842 28.4549 5.86518C27.8193 5.43615 27.1162 5.09489 26.3615 4.86218C25.6118 4.62441 24.8108 4.50025 23.9839 4.50025C22.9239 4.50025 21.9056 4.70724 20.9753 5.08484C20.8976 5.11555 20.8254 5.14639 20.7532 5.18272C19.9158 5.5497 19.1505 6.06662 18.4943 6.68192C18.2823 6.88336 18.0809 7.09534 17.8789 7.33311C17.5226 7.74148 17.1556 8.21196 16.7987 8.68743C16.7265 8.78531 16.6488 8.8888 16.5766 8.98731C16.3802 9.25585 14.5034 12.0059 14.1728 12.4971C14.0072 12.7449 13.8108 13.024 13.5988 13.329C13.5524 13.3962 13.5009 13.4688 13.4494 13.541C13.0976 14.0423 12.7048 14.5698 12.3429 15.0352C12.1622 15.2674 11.981 15.4844 11.826 15.6656C11.666 15.8514 11.5211 16.0014 11.4176 16.0997C10.9734 16.5182 10.451 16.8595 9.87754 17.0922C9.30363 17.3249 8.67815 17.4541 8.01635 17.4541C7.56154 17.4541 7.12233 17.3919 6.70897 17.2784C6.49698 17.2214 6.28999 17.1492 6.08855 17.0614C5.19916 16.6888 4.43941 16.0583 3.90688 15.2673C3.63834 14.8696 3.42629 14.4354 3.28147 13.97C3.14208 13.5046 3.05937 13.0139 3.05937 12.497C3.05937 11.8095 3.1992 11.1634 3.44702 10.5687C3.82461 9.67976 4.45508 8.92514 5.2461 8.38749C5.64385 8.11845 6.07794 7.91195 6.54336 7.76707C7.00829 7.62219 7.49943 7.53998 8.01635 7.53998C8.67815 7.54497 9.30363 7.66919 9.87754 7.90141C10.451 8.13911 10.9734 8.47532 11.4176 8.8938C11.5211 8.99224 11.666 9.14717 11.826 9.32838C12.1052 9.65398 12.4358 10.0725 12.767 10.5122C12.8962 10.6878 13.0254 10.8635 13.1546 11.0442C13.6508 10.3208 14.519 9.04923 14.9738 8.39248C14.8966 8.28899 14.8189 8.18605 14.7416 8.08256C14.5346 7.81851 14.3277 7.56563 14.1213 7.33292C13.9143 7.09516 13.7179 6.88317 13.5059 6.68173C12.7927 6.00931 11.9502 5.46168 11.0249 5.08459C10.0945 4.70699 9.07591 4.5 8.01635 4.5C6.9154 4.5 5.8609 4.7226 4.89978 5.13097C3.46269 5.73572 2.24763 6.74883 1.38439 8.02544C0.955359 8.66152 0.614594 9.36921 0.376827 10.1188C0.144178 10.8737 0.0200195 11.6698 0.0200195 12.4971C0.0200195 13.5981 0.242119 14.6526 0.645494 15.6087C1.25524 17.0509 2.26836 18.2659 3.53996 19.1291C4.18104 19.5582 4.88423 19.8989 5.63886 20.1367C6.38843 20.3694 7.18956 20.4935 8.01641 20.4935C9.07597 20.4935 10.0946 20.2865 11.0249 19.9095C11.9503 19.5319 12.7877 18.9842 13.501 18.3174L13.506 18.3123C13.718 18.1159 13.9144 17.8984 14.1213 17.6606C14.4777 17.2522 14.8447 16.7823 15.2016 16.3067C15.2738 16.2083 15.3515 16.1098 15.4237 16.0119C15.62 15.7378 18.1894 11.9695 18.401 11.6647C18.4479 11.5975 18.4994 11.5253 18.5508 11.4527C18.9027 10.9564 19.2954 10.424 19.6573 9.95904C19.8381 9.72633 20.0193 9.50922 20.1743 9.32851C20.3343 9.14224 20.4792 8.9923 20.5826 8.89392C21.0268 8.47544 21.5493 8.13924 22.1228 7.90153C22.2626 7.84497 22.4019 7.7986 22.5468 7.75159C23.0016 7.61738 23.4821 7.54516 23.9839 7.5401C24.6714 7.5451 25.3226 7.67943 25.9116 7.9328C26.8006 8.30484 27.5609 8.93531 28.0929 9.72633C28.3619 10.1246 28.5739 10.5587 28.7183 11.0236C28.8632 11.489 28.9409 11.9802 28.9409 12.4971C28.9409 13.1846 28.8011 13.8358 28.5532 14.4249C28.1756 15.3138 27.5452 16.074 26.7542 16.606C26.3564 16.8751 25.9223 17.0871 25.4569 17.2265C24.997 17.3713 24.5008 17.4542 23.9839 17.4542C23.3221 17.4542 22.6966 17.325 22.1227 17.0923C21.5492 16.8595 21.0268 16.5183 20.5826 16.0998C20.4791 16.0014 20.3342 15.8464 20.1742 15.6657C19.8951 15.3452 19.564 14.9211 19.2332 14.482C19.099 14.3063 18.9698 14.1251 18.8405 13.9443C18.7992 14.0064 18.7578 14.0686 18.7113 14.1357C17.8583 15.3866 17.3206 16.1775 17.0263 16.6061C17.1035 16.7096 17.1813 16.808 17.2585 16.9115C17.4655 17.175 17.6724 17.4285 17.8789 17.6606C18.0807 17.8983 18.2822 18.1159 18.4942 18.3123C19.2075 18.9842 20.05 19.5319 20.9753 19.9095C21.9056 20.2865 22.9238 20.4935 23.9839 20.4935C25.0847 20.4935 26.1393 20.2714 27.0954 19.8681C28.5375 19.2583 29.7521 18.2452 30.6157 16.9681C31.0443 16.3326 31.3911 15.6294 31.6233 14.8747C31.8561 14.1251 31.9804 13.324 31.9804 12.4971C31.9804 11.3962 31.7583 10.3417 31.3549 9.38513Z"
                        fill="#13F195"
                      />
                    </g>
                    <path
                      d="M49.9609 11.1172V15.5469C49.7943 15.7604 49.5312 15.9922 49.1719 16.2422C48.8177 16.4922 48.3542 16.7083 47.7812 16.8906C47.2083 17.0677 46.5052 17.1562 45.6719 17.1562C44.9479 17.1562 44.2865 17.0365 43.6875 16.7969C43.0885 16.5521 42.5729 16.1953 42.1406 15.7266C41.7083 15.2578 41.375 14.6849 41.1406 14.0078C40.9062 13.3307 40.7891 12.5573 40.7891 11.6875V10.9375C40.7891 10.0677 40.8984 9.29427 41.1172 8.61719C41.3411 7.9401 41.6589 7.36719 42.0703 6.89844C42.487 6.42969 42.9844 6.07292 43.5625 5.82812C44.1458 5.58333 44.7969 5.46094 45.5156 5.46094C46.4792 5.46094 47.2708 5.61979 47.8906 5.9375C48.5156 6.25521 48.9948 6.69271 49.3281 7.25C49.6615 7.80208 49.8698 8.4375 49.9531 9.15625H47.8594C47.8021 8.76042 47.6875 8.41406 47.5156 8.11719C47.3438 7.8151 47.099 7.58073 46.7812 7.41406C46.4688 7.24219 46.0625 7.15625 45.5625 7.15625C45.1406 7.15625 44.7682 7.23958 44.4453 7.40625C44.1224 7.57292 43.8516 7.8151 43.6328 8.13281C43.4141 8.45052 43.2474 8.84375 43.1328 9.3125C43.0234 9.78125 42.9688 10.3177 42.9688 10.9219V11.6875C42.9688 12.2969 43.0312 12.8385 43.1562 13.3125C43.2812 13.7812 43.4609 14.1771 43.6953 14.5C43.9349 14.8177 44.2292 15.0599 44.5781 15.2266C44.9323 15.388 45.3333 15.4688 45.7812 15.4688C46.1875 15.4688 46.5234 15.4349 46.7891 15.3672C47.0599 15.2943 47.276 15.2083 47.4375 15.1094C47.599 15.0104 47.724 14.9141 47.8125 14.8203V12.6875H45.5547V11.1172H49.9609ZM59.5312 15.3125V17H53.4844V15.3125H59.5312ZM54.1406 5.625V17H51.9922V5.625H54.1406ZM58.7422 10.3203V11.9688H53.4844V10.3203H58.7422ZM59.5078 5.625V7.32031H53.4844V5.625H59.5078ZM61.9609 5.625H63.8203L66.9297 14.1875L70.0312 5.625H71.8984L67.6719 17H66.1797L61.9609 5.625ZM61.0234 5.625H62.8438L63.1719 13.4922V17H61.0234V5.625ZM71.0078 5.625H72.8359V17H70.6875V13.4922L71.0078 5.625Z"
                      fill="#13F195"
                    />
                    <path
                      d="M81.3516 5.625H83.5V13.1797C83.5 14.0495 83.3125 14.7812 82.9375 15.375C82.5625 15.9635 82.0521 16.4089 81.4062 16.7109C80.7604 17.0078 80.026 17.1562 79.2031 17.1562C78.3698 17.1562 77.6276 17.0078 76.9766 16.7109C76.3255 16.4089 75.8151 15.9635 75.4453 15.375C75.0755 14.7812 74.8906 14.0495 74.8906 13.1797V5.625H77.0391V13.1797C77.0391 13.7109 77.1276 14.1458 77.3047 14.4844C77.4818 14.8177 77.7318 15.0651 78.0547 15.2266C78.3776 15.388 78.7604 15.4688 79.2031 15.4688C79.651 15.4688 80.0339 15.388 80.3516 15.2266C80.6745 15.0651 80.9219 14.8177 81.0938 14.4844C81.2656 14.1458 81.3516 13.7109 81.3516 13.1797V5.625ZM89.9141 12.8516H86.9844V11.1641H89.9141C90.3932 11.1641 90.7812 11.0859 91.0781 10.9297C91.3802 10.7682 91.6016 10.5495 91.7422 10.2734C91.8828 9.99219 91.9531 9.67188 91.9531 9.3125C91.9531 8.96354 91.8828 8.63802 91.7422 8.33594C91.6016 8.03385 91.3802 7.78906 91.0781 7.60156C90.7812 7.41406 90.3932 7.32031 89.9141 7.32031H87.6875V17H85.5391V5.625H89.9141C90.7995 5.625 91.5547 5.78385 92.1797 6.10156C92.8099 6.41406 93.2891 6.84896 93.6172 7.40625C93.9505 7.95833 94.1172 8.58854 94.1172 9.29688C94.1172 10.0312 93.9505 10.6641 93.6172 11.1953C93.2891 11.7266 92.8099 12.1354 92.1797 12.4219C91.5547 12.7083 90.7995 12.8516 89.9141 12.8516ZM101.758 14.0469C101.758 13.8281 101.724 13.6328 101.656 13.4609C101.594 13.2839 101.477 13.125 101.305 12.9844C101.138 12.8385 100.901 12.6979 100.594 12.5625C100.292 12.4219 99.901 12.276 99.4219 12.125C98.8906 11.9583 98.3958 11.7708 97.9375 11.5625C97.4792 11.3542 97.0755 11.112 96.7266 10.8359C96.3828 10.5599 96.1146 10.2422 95.9219 9.88281C95.7292 9.51823 95.6328 9.09635 95.6328 8.61719C95.6328 8.14844 95.7318 7.72135 95.9297 7.33594C96.1328 6.95052 96.4193 6.61979 96.7891 6.34375C97.1589 6.0625 97.5938 5.84635 98.0938 5.69531C98.599 5.54427 99.1562 5.46875 99.7656 5.46875C100.609 5.46875 101.339 5.6224 101.953 5.92969C102.573 6.23698 103.052 6.65365 103.391 7.17969C103.729 7.70573 103.898 8.29688 103.898 8.95312H101.758C101.758 8.59896 101.682 8.28646 101.531 8.01562C101.385 7.74479 101.161 7.53125 100.859 7.375C100.562 7.21875 100.188 7.14062 99.7344 7.14062C99.2969 7.14062 98.9323 7.20573 98.6406 7.33594C98.3542 7.46615 98.138 7.64323 97.9922 7.86719C97.8516 8.09115 97.7812 8.34115 97.7812 8.61719C97.7812 8.82552 97.8307 9.01302 97.9297 9.17969C98.0286 9.34115 98.1771 9.49479 98.375 9.64062C98.5729 9.78125 98.8177 9.91406 99.1094 10.0391C99.4062 10.1589 99.75 10.2786 100.141 10.3984C100.766 10.5859 101.312 10.7943 101.781 11.0234C102.255 11.2526 102.648 11.513 102.961 11.8047C103.279 12.0964 103.516 12.4245 103.672 12.7891C103.833 13.1536 103.914 13.5677 103.914 14.0312C103.914 14.5208 103.818 14.9583 103.625 15.3438C103.432 15.7292 103.156 16.0573 102.797 16.3281C102.438 16.599 102.005 16.8047 101.5 16.9453C101 17.0859 100.44 17.1562 99.8203 17.1562C99.2682 17.1562 98.7214 17.0833 98.1797 16.9375C97.6432 16.7865 97.1562 16.5625 96.7188 16.2656C96.2812 15.9635 95.9323 15.5833 95.6719 15.125C95.4115 14.6615 95.2812 14.1198 95.2812 13.5H97.4375C97.4375 13.8594 97.4948 14.1667 97.6094 14.4219C97.7292 14.6719 97.8958 14.8776 98.1094 15.0391C98.3281 15.1953 98.5833 15.3099 98.875 15.3828C99.1667 15.4557 99.4818 15.4922 99.8203 15.4922C100.258 15.4922 100.617 15.4323 100.898 15.3125C101.185 15.1875 101.398 15.0156 101.539 14.7969C101.685 14.5781 101.758 14.3281 101.758 14.0469Z"
                      fill="white"
                    />
                    <defs>
                      <clipPath id="clip0_8938_5596">
                        <rect
                          width="32"
                          height="17"
                          fill="white"
                          transform="translate(0 3.5)"
                        />
                      </clipPath>
                    </defs>
                  </svg>